# xmcd
#
# Track frame offsets: 
#        150
#        13182
#        25906
#        38714
#        55381
#        68589
#        91250
#        106577
#        129113
#        144706
#
# Disc length: 2134 seconds
#
# Revision: 0
# Processed by: cddbd v1.5.2PL0 Copyright (c) Steve Scherf et al.
# Submitted via: ExactAudioCopy v0.99pb3
#
DISCID=7908540a
DTITLE=Terry Sheehan - The Moon and the Deep Blue Sea
DYEAR=2002
DGENRE=Blues
TTITLE0=The Moom and the Deep Blue Sea
TTITLE1=Dial
TTITLE2=You're Wearin Me Out
TTITLE3=East of Town
TTITLE4=Just Turn Around Blues
TTITLE5=Shiny Words
TTITLE6=Velvet Elvis
TTITLE7=Footsteps Blues
TTITLE8=Gotta-Lotta (True Love)
TTITLE9=Turn Your Love My Way
EXTD=
EXTT0=
EXTT1=
EXTT2=
EXTT3=
EXTT4=
EXTT5=
EXTT6=
EXTT7=
EXTT8=
EXTT9=
PLAYORDER=
